<svg xmlns="http://www.w3.org/2000/svg" version="1.1" width="1080" height="1080">
<path d="M0 0 C356.4 0 712.8 0 1080 0 C1080 356.4 1080 712.8 1080 1080 C723.6 1080 367.2 1080 0 1080 C0 723.6 0 367.2 0 0 Z " fill="#FEFEFE" transform="translate(0,0)"/>
<path d="M0 0 C0.75512878 0.00087616 1.51025757 0.00175232 2.28826904 0.00265503 C54.45699584 0.20042456 105.3237164 20.33673923 143.125 56.375 C143.74391113 56.9613623 144.36282227 57.54772461 145.00048828 58.15185547 C176.37743275 88.06043903 198.07010669 126.60202487 206.125 169.375 C206.34929687 170.55739258 206.34929687 170.55739258 206.578125 171.76367188 C216.01482961 223.86892447 204.45708546 280.22402995 174.5 323.9375 C142.07422607 370.09508509 95.73575594 402.22035026 40.125 413.375 C38.8270752 413.63966064 38.8270752 413.63966064 37.50292969 413.90966797 C-7.12211733 422.55866383 -50.79068938 412.98256169 -91.875 395.375 C-91.875 473.915 -91.875 552.455 -91.875 633.375 C-129.825 633.375 -167.775 633.375 -206.875 633.375 C-206.941193 577.42426646 -206.99656372 521.47356998 -207.02819599 465.52280845 C-207.0319479 458.91046924 -207.03583089 452.29813011 -207.03979492 445.68579102 C-207.04058185 444.36944781 -207.04136878 443.0531046 -207.04217956 441.6968722 C-207.05521725 420.41030824 -207.07886206 399.12376892 -207.10645839 377.83721838 C-207.13455817 355.97928864 -207.15118592 334.12137164 -207.15726548 312.26342458 C-207.16137244 298.7866066 -207.17432259 285.30985766 -207.1987494 271.83306094 C-207.21466308 262.57919344 -207.21938766 253.32536139 -207.21550413 244.07148121 C-207.21359133 238.74035587 -207.21642864 233.40935078 -207.23261642 228.07824707 C-207.24737182 223.18271629 -207.2478526 218.28738498 -207.23769668 213.39184441 C-207.23644421 211.63508535 -207.24011615 209.87831309 -207.24964955 208.12157945 C-207.33644925 191.11671622 -205.26085309 174.400565 -201.1875 157.875 C-200.93258789 156.83512939 -200.67767578 155.79525879 -200.41503906 154.72387695 C-193.05397213 125.86664771 -179.09028081 99.1007648 -159.875 76.375 C-159.0809375 75.38628906 -158.286875 74.39757812 -157.46875 73.37890625 C-128.8694392 38.07118139 -87.45072815 14.81393262 -43.5625 4.5625 C-42.728396 4.36736816 -41.89429199 4.17223633 -41.03491211 3.97119141 C-27.44461268 0.99145086 -13.87802825 -0.03990487 0 0 Z " fill="#000000" transform="translate(538.875,223.625)"/>
<path d="M0 0 C1.10472656 0.52464844 2.20945312 1.04929687 3.34765625 1.58984375 C31.4432936 15.82184121 50.27452895 40.68029951 59.9921875 70.20703125 C62.477024 79.55887714 63.36080175 88.45498995 63.3125 98.125 C63.30686035 99.31206543 63.3012207 100.49913086 63.29541016 101.72216797 C62.94636842 127.13309747 54.91320747 151.64606544 38 171 C37.20078125 171.94230469 36.4015625 172.88460937 35.578125 173.85546875 C21.26669402 190.37170506 3.02974539 201.18872304 -18 207 C-18.84425537 207.25749023 -19.68851074 207.51498047 -20.55834961 207.78027344 C-29.00421021 210.17648454 -37.22135441 210.5546557 -45.9375 210.5 C-46.65867004 210.49890228 -47.37984009 210.49780457 -48.12286377 210.49667358 C-64.66679671 210.42463606 -80.26850327 207.94815638 -95 200 C-96.51013672 199.26523437 -96.51013672 199.26523437 -98.05078125 198.515625 C-124.80124826 185.06030028 -143.16835805 161.47382279 -152.5 133.375 C-161.13146685 107.06762044 -159.13416754 76.74675278 -147.00390625 51.7734375 C-141.00688814 40.15289713 -133.20165799 30.22772501 -124 21 C-123.17242187 20.14921875 -122.34484375 19.2984375 -121.4921875 18.421875 C-89.98731807 -12.21588793 -39.25806682 -18.83479507 0 0 Z " fill="#FEFEFE" transform="translate(587,336)"/>
<path d="M0 0 C0.33 0 0.66 0 1 0 C1 120.45 1 240.9 1 365 C-36.95 365 -74.9 365 -114 365 C-114.88666675 307.84581936 -114.88666675 307.84581936 -115.07421875 283.87695312 C-115.11741568 278.40045802 -115.16173726 272.92397566 -115.20849609 267.44750977 C-115.21429857 266.76118345 -115.22010104 266.07485714 -115.22607934 265.36773306 C-115.32160662 254.3063927 -115.49494826 243.24758442 -115.69736151 232.18774251 C-115.90356584 220.82544558 -116.02373973 209.46501678 -116.06994689 198.10073012 C-116.09858547 191.72114912 -116.16562863 185.3472938 -116.32606125 178.96955299 C-116.47603712 172.95849478 -116.52135076 166.95548331 -116.48836899 160.94273186 C-116.49439566 158.74338017 -116.53783829 156.54374501 -116.62252045 154.34601593 C-117.11786686 140.8208551 -117.11786686 140.8208551 -114 135 C-108.56201173 129.59597909 -101.66023479 126.49863297 -94.76432157 123.35886991 C-90.47681137 121.25123936 -86.66459484 118.55825588 -82.8125 115.75 C-82.08728673 115.22634643 -81.36207345 114.70269286 -80.61488402 114.16317099 C-74.88488349 110.00309861 -69.34804931 105.6424596 -64 101 C-63.02675781 100.16082031 -62.05351563 99.32164062 -61.05078125 98.45703125 C-31.84064937 72.78382557 -13.55147562 35.86183182 0 0 Z " fill="#000000" transform="translate(747,492)"/>
<path d="M0 0 C5.57383984 1.87150827 9.3966648 5.79332959 12 11 C12.53625508 17.31130983 12.58640524 22.54866404 9 28 C8.505 28.495 8.505 28.495 8 29 C7.67856481 34.44343512 8.53450696 39.09788701 9.875 44.3125 C11.42870763 50.52157604 12.74215198 56.71075988 14 63 C1.46 63 -11.08 63 -24 63 C-22.57461836 55.16040098 -21.0453905 47.40762233 -19.23632812 39.65625 C-18.03434312 34.20961683 -17.43780973 30.48439928 -20.53515625 25.55859375 C-23.14190783 21.00546766 -22.62158173 16.09006371 -22 11 C-17.29796302 1.247627 -10.1040941 -1.00482704 0 0 Z " fill="#020202" transform="translate(546,405)"/>
<path d="M0 0 C0.33 0 0.66 0 1 0 C1 120.45 1 240.9 1 365 C-36.95 365 -74.9 365 -114 365 C-114 289.1 -114 213.2 -114 135 C-113.67 135 -113.34 135 -113 135 C-113 210.57 -113 286.14 -113 364 C-75.71 364 -38.42 364 0 364 C-0.10540612 318.69875491 -0.2143424 273.39752468 -0.33111694 228.09630777 C-0.34488713 222.75260046 -0.35861414 217.40889304 -0.37231445 212.06518555 C-0.37504276 211.00131362 -0.37777106 209.93744169 -0.38058204 208.84133122 C-0.42470177 191.59713789 -0.46531999 174.35293798 -0.50465261 157.10873314 C-0.54506506 139.42514452 -0.58922078 121.74156812 -0.63687855 104.05799752 C-0.66618608 93.13926082 -0.69254579 82.22052507 -0.71517897 71.30177245 C-0.73096171 63.82252393 -0.75036816 56.34329037 -0.77266841 48.86405846 C-0.78544142 44.54379408 -0.7965744 40.22354127 -0.80341911 35.90326309 C-0.80971362 31.95243267 -0.82053145 28.00164208 -0.8350333 24.0508335 C-0.83948087 22.61741575 -0.842231 21.18399157 -0.84316199 19.75056722 C-0.84466419 17.81001175 -0.85280925 15.86946475 -0.8613348 13.92892742 C-0.86532186 12.30847091 -0.86532186 12.30847091 -0.86938947 10.65527791 C-0.88577895 7.89393408 -0.88577895 7.89393408 -2 5 C-1.0625 2.3125 -1.0625 2.3125 0 0 Z " fill="#494949" transform="translate(747,492)"/>
</svg>